<svg xmlns="http://www.w3.org/2000/svg" >
    <symbol xmlns="http://www.w3.org/2000/svg" id="plus" viewBox="0 0 20 20">
        <polygon points="20,8 20,12 0,12 0,8"/>
        <polygon points="8,0 12,0 12,20 8,20"/>
    </symbol>

    <symbol xmlns="http://www.w3.org/2000/svg" id="closeModal" viewBox="0 0 16 16">
        <path d="M16,1.6,14.4,0,8,6.4,1.6,0,0,1.6,6.4,8,0,14.4,1.6,16,8,9.6,14.4,16,16,14.4,9.6,8Z"/>
    </symbol>

    <symbol xmlns="http://www.w3.org/2000/svg" id="menuBurger" viewBox="0 0 25 16">
        <path d="M.94,1.88H24.06a.94.94,0,1,0,0-1.88H.94a.94.94,0,1,0,0,1.88ZM24.06,7.06H.94a.94.94,0,1,0,0,1.88H24.06a.94.94,0,1,0,0-1.88Zm0,7.06H.94A.94.94,0,1,0,.94,16H24.06a.94.94,0,1,0,0-1.88Z"/>
    </symbol>
    <symbol xmlns="http://www.w3.org/2000/svg" id="rezart_logo" viewBox="0 0 446.4 267.24">
        <path d="M442.14,240.64,302,.56a1.51,1.51,0,0,0-2.33,0C298.37,1.81,170.74,221,170.74,221l-30.56-51.21.33-1.33S195.32,152,195.32,92.33,135.7,15.52,122.58,15.52H0L20.6,52.76h93.34s47.5-3.56,47.5,40.57-36.19,44.89-42.52,44.89H80.39l70.09,117.71s6.49,11.31,16.94,11.31,14.64-5.43,18.93-11.64S300.63,64.4,300.63,64.4l84.71,141.65L299,156.18,331.19,212l89,51.21s14.13,5.79,22.59-2.33S442.14,240.64,442.14,240.64ZM37.2,158.17,1.33,96.32v149s-.14,14.63,18.27,14.63,17.94-15.3,17.94-15.3Z" />
    </symbol>
    <symbol xmlns="http://www.w3.org/2000/svg" id="playBtn" viewBox="0 0 41.999 41.999">
        <path d="M36.068,20.176l-29-20C6.761-0.035,6.363-0.057,6.035,0.114C5.706,0.287,5.5,0.627,5.5,0.999v40c0,0.372,0.206,0.713,0.535,0.886c0.146,0.076,0.306,0.114,0.465,0.114c0.199,0,0.397-0.06,0.568-0.177l29-20c0.271-0.187,0.432-0.494,0.432-0.823S36.338,20.363,36.068,20.176z"/>
    </symbol>
    <symbol xmlns="http://www.w3.org/2000/svg" id="arrow_down" viewBox="0 0 447.243 447.243">
        <path xmlns="http://www.w3.org/2000/svg" d="M406.101,232.603c-0.978-0.982-2.019-1.899-3.116-2.745c-13.381-8.971-31.276-7.013-42.4,4.64l-88.64,88.32c-4.7,4.695-8.641,10.093-11.68,16l-5.12,9.76v-314.4c0.677-16.099-10.332-30.349-26.08-33.76c-17.445-2.829-33.881,9.019-36.71,26.465c-0.297,1.83-0.434,3.682-0.41,5.535v315.52l-3.2-6.88c-3.183-6.725-7.515-12.843-12.8-18.08l-88.64-88.48c-11.124-11.653-29.019-13.611-42.4-4.64c-14.259,10.441-17.355,30.464-6.914,44.724c0.844,1.152,1.764,2.247,2.754,3.276l160,160c12.49,12.504,32.751,12.515,45.255,0.025c0.008-0.008,0.017-0.017,0.025-0.025l160-160C418.542,265.382,418.577,245.121,406.101,232.603z"/>
    </symbol>
    <symbol xmlns="http://www.w3.org/2000/svg" id="instagram" viewBox="0 0 24 24">
        <path d="m12.004 5.838c-3.403 0-6.158 2.758-6.158 6.158 0 3.403 2.758 6.158 6.158 6.158 3.403 0 6.158-2.758 6.158-6.158 0-3.403-2.758-6.158-6.158-6.158zm0 10.155c-2.209 0-3.997-1.789-3.997-3.997s1.789-3.997 3.997-3.997 3.997 1.789 3.997 3.997c.001 2.208-1.788 3.997-3.997 3.997z" fill="#DB91AE"/>
        <path d="m16.948.076c-2.208-.103-7.677-.098-9.887 0-1.942.091-3.655.56-5.036 1.941-2.308 2.308-2.013 5.418-2.013 9.979 0 4.668-.26 7.706 2.013 9.979 2.317 2.316 5.472 2.013 9.979 2.013 4.624 0 6.22.003 7.855-.63 2.223-.863 3.901-2.85 4.065-6.419.104-2.209.098-7.677 0-9.887-.198-4.213-2.459-6.768-6.976-6.976zm3.495 20.372c-1.513 1.513-3.612 1.378-8.468 1.378-5 0-7.005.074-8.468-1.393-1.685-1.677-1.38-4.37-1.38-8.453 0-5.525-.567-9.504 4.978-9.788 1.274-.045 1.649-.06 4.856-.06l.045.03c5.329 0 9.51-.558 9.761 4.986.057 1.265.07 1.645.07 4.847-.001 4.942.093 6.959-1.394 8.453z" fill="#DB91AE"/>
        <circle cx="18.406" cy="5.595" r="1.439" fill="#DB91AE"/>
    </symbol>
    <symbol xmlns="http://www.w3.org/2000/svg" id="youtube" viewBox="-21 -117 682.66672 682">
        <path d="m626.8125 64.035156c-7.375-27.417968-28.992188-49.03125-56.40625-56.414062-50.082031-13.703125-250.414062-13.703125-250.414062-13.703125s-200.324219 0-250.40625 13.183593c-26.886719 7.375-49.03125 29.519532-56.40625 56.933594-13.179688 50.078125-13.179688 153.933594-13.179688 153.933594s0 104.378906 13.179688 153.933594c7.382812 27.414062 28.992187 49.027344 56.410156 56.410156 50.605468 13.707031 250.410156 13.707031 250.410156 13.707031s200.324219 0 250.40625-13.183593c27.417969-7.378907 49.03125-28.992188 56.414062-56.40625 13.175782-50.082032 13.175782-153.933594 13.175782-153.933594s.527344-104.382813-13.183594-154.460938zm-370.601562 249.878906v-191.890624l166.585937 95.945312zm0 0" fill="#DB91AE"/>
    </symbol>
    <symbol xmlns="http://www.w3.org/2000/svg" id="telegram" viewBox="0 0 24 24">
        <path d="m9.417 15.181-.397 5.584c.568 0 .814-.244 1.109-.537l2.663-2.545 5.518 4.041c1.012.564 1.725.267 1.998-.931l3.622-16.972.001-.001c.321-1.496-.541-2.081-1.527-1.714l-21.29 8.151c-1.453.564-1.431 1.374-.247 1.741l5.443 1.693 12.643-7.911c.595-.394 1.136-.176.691.218z" fill="#DB91AE"/>
    </symbol>
</svg>