<svg xmlns="http://www.w3.org/2000/svg" >
    <symbol xmlns="http://www.w3.org/2000/svg" id="plus" viewBox="0 0 20 20">
        <polygon points="20,8 20,12 0,12 0,8"/>
        <polygon points="8,0 12,0 12,20 8,20"/>
    </symbol>

    <symbol xmlns="http://www.w3.org/2000/svg" id="closeModal" viewBox="0 0 16 16">
        <path d="M16,1.6,14.4,0,8,6.4,1.6,0,0,1.6,6.4,8,0,14.4,1.6,16,8,9.6,14.4,16,16,14.4,9.6,8Z"/>
    </symbol>

    <symbol xmlns="http://www.w3.org/2000/svg" id="menuBurger" viewBox="0 0 25 16">
        <path d="M.94,1.88H24.06a.94.94,0,1,0,0-1.88H.94a.94.94,0,1,0,0,1.88ZM24.06,7.06H.94a.94.94,0,1,0,0,1.88H24.06a.94.94,0,1,0,0-1.88Zm0,7.06H.94A.94.94,0,1,0,.94,16H24.06a.94.94,0,1,0,0-1.88Z"/>
    </symbol>
    <symbol xmlns="http://www.w3.org/2000/svg" id="rezart_logo" viewBox="0 0 446.4 267.24">
        <path d="M442.14,240.64,302,.56a1.51,1.51,0,0,0-2.33,0C298.37,1.81,170.74,221,170.74,221l-30.56-51.21.33-1.33S195.32,152,195.32,92.33,135.7,15.52,122.58,15.52H0L20.6,52.76h93.34s47.5-3.56,47.5,40.57-36.19,44.89-42.52,44.89H80.39l70.09,117.71s6.49,11.31,16.94,11.31,14.64-5.43,18.93-11.64S300.63,64.4,300.63,64.4l84.71,141.65L299,156.18,331.19,212l89,51.21s14.13,5.79,22.59-2.33S442.14,240.64,442.14,240.64ZM37.2,158.17,1.33,96.32v149s-.14,14.63,18.27,14.63,17.94-15.3,17.94-15.3Z" />
    </symbol>
    <symbol xmlns="http://www.w3.org/2000/svg" id="playBtn" viewBox="0 0 41.999 41.999">
        <path d="M36.068,20.176l-29-20C6.761-0.035,6.363-0.057,6.035,0.114C5.706,0.287,5.5,0.627,5.5,0.999v40c0,0.372,0.206,0.713,0.535,0.886c0.146,0.076,0.306,0.114,0.465,0.114c0.199,0,0.397-0.06,0.568-0.177l29-20c0.271-0.187,0.432-0.494,0.432-0.823S36.338,20.363,36.068,20.176z"/>
    </symbol>
</svg>